<?xml version="1.0" encoding="UTF-8"?>
<svg width="26px" height="40px" display="block" viewBox="0 0 27 41" xmlns="http://www.w3.org/2000/svg">
<g>
<g transform="translate(3 29)">
<ellipse cx="10.5" cy="5.8003" rx="10.5" ry="5.25" opacity=".04"/>
<ellipse cx="10.5" cy="5.8003" rx="10.5" ry="5.25" opacity=".04"/>
<ellipse cx="10.5" cy="5.8003" rx="9.5" ry="4.7728" opacity=".04"/>
<ellipse cx="10.5" cy="5.8003" rx="8.5" ry="4.2955" opacity=".04"/>
<ellipse cx="10.5" cy="5.8003" rx="7.5" ry="3.8182" opacity=".04"/>
<ellipse cx="10.5" cy="5.8003" rx="6.5" ry="3.3409" opacity=".04"/>
<ellipse cx="10.5" cy="5.8003" rx="5.5" ry="2.8637" opacity=".04"/>
<ellipse cx="10.5" cy="5.8003" rx="4.5" ry="2.3864" opacity=".04"/>
</g>
<g fill="#4668F2">
<path d="m27 13.5c0 5.5746-6.75 13.5-12.25 21-0.73334 1-1.7667 1-2.5 0-5.5-7.5-12.25-15.277-12.25-21 0-7.4558 6.0442-13.5 13.5-13.5 7.4558 0 13.5 6.0442 13.5 13.5z"/>
</g>
<g opacity=".25">
<path d="m13.5 0c-7.4558 0-13.5 6.0442-13.5 13.5 0 5.7226 6.75 13.5 12.25 21 0.75 1.0227 1.7667 1 2.5 0 5.5-7.5 12.25-15.425 12.25-21 0-7.4558-6.0442-13.5-13.5-13.5zm0 1c6.9154 0 12.5 5.5846 12.5 12.5 0 2.3987-1.5044 5.6814-3.7793 9.2383-2.2749 3.5569-5.5156 7.4039-8.2773 11.17-0.19991 0.27261-0.33064 0.41454-0.44336 0.5332-0.11272-0.11867-0.24344-0.26059-0.44336-0.5332-2.7722-3.7802-5.6418-7.594-8.041-11.135-2.3992-3.5407-4.0156-6.8199-4.0156-9.2734 0-6.9154 5.5846-12.5 12.5-12.5z"/>
</g>
<g transform="translate(8 8)">
<circle cx="5.5" cy="5.5" r="5.5" opacity=".25"/>
<circle cx="5.5" cy="5.5" r="5.5" fill="#fff"/>
</g>
</g>
</svg>
